<svg width="35" height="35" viewBox="0 0 35 35" fill="none" xmlns="http://www.w3.org/2000/svg">
<path d="M27.7077 5.83203H7.29102C6.13069 5.83203 5.0179 6.29297 4.19742 7.11344C3.37695 7.93391 2.91602 9.04671 2.91602 10.207V24.7904C2.91602 25.9507 3.37695 27.0635 4.19742 27.884C5.0179 28.7044 6.13069 29.1654 7.29102 29.1654H27.7077C28.868 29.1654 29.9808 28.7044 30.8013 27.884C31.6217 27.0635 32.0827 25.9507 32.0827 24.7904V10.207C32.0827 9.04671 31.6217 7.93391 30.8013 7.11344C29.9808 6.29297 28.868 5.83203 27.7077 5.83203ZM26.7306 8.7487L17.4993 15.6758L8.2681 8.7487H26.7306ZM27.7077 26.2487H7.29102C6.90424 26.2487 6.53331 26.0951 6.25982 25.8216C5.98633 25.5481 5.83268 25.1771 5.83268 24.7904V10.5716L16.6243 18.6654C16.8768 18.8547 17.1838 18.957 17.4993 18.957C17.8149 18.957 18.1219 18.8547 18.3743 18.6654L29.166 10.5716V24.7904C29.166 25.1771 29.0124 25.5481 28.7389 25.8216C28.4654 26.0951 28.0945 26.2487 27.7077 26.2487Z" fill="#203426"/>
</svg>
